<svg id="kity_svg_4" xmlns="http://www.w3.org/2000/svg" xmlns:xlink="http://www.w3.org/1999/xlink" version="1.1" width="456" height="253" style="font-family: Arial, &quot;Microsoft Yahei&quot;,  &quot;Heiti SC&quot;; background: #fbfbfb" viewBox="399 161 456 253"><defs id="kity_defs_5"><linearGradient id="kity_linearGradient_15" x1="0" y1="0" x2="0" y2="1"><stop id="kity_stop_16" offset="0" stop-color="rgb(255, 255, 255)"></stop><stop id="kity_stop_17" offset="1" stop-color="rgb(204, 204, 204)"></stop></linearGradient><marker id="kity_marker_2" orient="auto" refX="6" refY="0" viewBox="-7 -7 14 14" markerWidth="7" markerHeight="7" markerUnits="userSpaceOnUse"><path id="kity_path_3" fill="rgb(191, 115, 148)" stroke="none" d="M6,0A6,6,0,1,1,-6,0A6,6,0,1,1,6,0"></path></marker></defs><g id="kity_g_6" transform="translate(0.5, 0.5)"><g id="minder1" text-rendering="optimize-speed" transform="translate( 624 302 )"><g id="minder_connect_group1"><path id="kity_path_29" fill="none" stroke="rgb(191, 115, 148)" stroke-width="1" marker-end="url(#kity_marker_2)" d="M24 0A91,105,0,0,1,115 -105" transform="translate( 0 0 )"></path><path id="kity_path_31" fill="none" stroke="rgb(191, 115, 148)" stroke-width="1" marker-end="url(#kity_marker_2)" d="M24 0A84,54,0,0,0,108 54" transform="translate( 0 0 )"></path><path id="kity_path_33" fill="none" stroke="rgb(191, 115, 148)" stroke-width="1" marker-end="url(#kity_marker_2)" d="M24 0A109,65,0,0,0,-85 -65" transform="translate( 0 0 )"></path><path id="kity_path_35" fill="none" stroke="rgb(191, 115, 148)" stroke-width="1" marker-end="url(#kity_marker_2)" d="M24 0A135,76,0,0,1,-111 76" transform="translate( 0 0 )"></path></g><g id="minder_node1" transform="matrix( 1 0 0 1 0 0 )"><path id="kity_path_84" fill="rgba(0, 0, 0, .25)" stroke="none" d="M6,-22h68a27,27,0,0,1,27,27v0a27,27,0,0,1,-27,27h-68a27,27,0,0,1,-27,-27v0a27,27,0,0,1,27,-27z" display="none"></path><path id="node_outline1" fill="rgb(191, 115, 148)" stroke="rgb(96, 57, 74)" d="M-19,-20h86a5,5,0,0,1,5,5v30a5,5,0,0,1,-5,5h-86a5,5,0,0,1,-5,-5v-30a5,5,0,0,1,5,-5z" stroke-width="3"></path><g id="node_text1" transform="translate( 0 0 )" fill="white"><text id="kity_text_20" text-rendering="inherit" dominant-baseline="text-before-edge" font-size="16" dy="0" y="-8">pgfault</text></g></g><g id="kity_g_10" display="none"><path id="kity_path_11" fill="none" stroke="none" d="M0,0h0v0h0z"></path></g><g id="kity_g_12" display="none"><path id="kity_path_13" fill="none" stroke="none" d="M0,0h0v0h0z"></path><path id="kity_path_14" fill="none" stroke="none"></path></g><g id="minder_node2" transform="matrix( 1 0 0 1 162 -105 )" opacity="1"><path id="kity_path_80" fill="rgba(0, 0, 0, .25)" stroke="none" d="M-31,-11h78a10,10,0,0,1,10,10v12a10,10,0,0,1,-10,10h-78a10,10,0,0,1,-10,-10v-12a10,10,0,0,1,10,-10z" display="none"></path><g id="node_expander1" transform="translate( -52 0 )" style="cursor: pointer;" display="none"><path id="kity_path_69" fill="white" stroke="gray" d="M6,0A6,6,0,1,1,-6,0A6,6,0,1,1,6,0"></path><path id="kity_path_70" fill="none" stroke="gray"></path></g><path id="node_outline2" fill="rgb(246, 238, 242)" stroke="rgb(96, 57, 74)" d="M-42,-16h88a3,3,0,0,1,3,3v26a3,3,0,0,1,-3,3h-88a3,3,0,0,1,-3,-3v-26a3,3,0,0,1,3,-3z" stroke-width="3"></path><g id="node_text2" transform="translate( 0 0 )" fill="black"><text id="kity_text_37" text-rendering="inherit" dominant-baseline="text-before-edge" font-size="14" dy="0" y="-7">alloc</text></g><g id="node_priority1" transform="translate( -25 -10 )"><path id="kity_path_46" fill="#840023" stroke="none" d="M0,13c0,3.866,3.134,7,7,7h6c3.866,0,7-3.134,7-7V7H0V13z" transform="translate( 0.5 0.5 )"></path><path id="kity_path_47" fill="#FF1200" stroke="none" d="M20,10c0,3.866-3.134,7-7,7H7c-3.866,0-7-3.134-7-7V7c0-3.866,3.134-7,7-7h6c3.866,0,7,3.134,7,7V10z" opacity="0.8" transform="translate( 0.5 0.5 )"></path><text id="kity_text_48" text-rendering="geometricPrecision" x="9.5" y="10" text-anchor="middle" font-style="italic" font-size="12" fill="white" dy="4">1</text></g></g><g id="minder_node3" transform="matrix( 1 0 0 1 155 54 )" opacity="1"><path id="kity_path_81" fill="rgba(0, 0, 0, .25)" stroke="none" d="M-31,-11h79a10,10,0,0,1,10,10v12a10,10,0,0,1,-10,10h-79a10,10,0,0,1,-10,-10v-12a10,10,0,0,1,10,-10z" display="none"></path><g id="node_expander2" transform="translate( -52 0 )" style="cursor: pointer;" display="none"><path id="kity_path_72" fill="white" stroke="gray" d="M6,0A6,6,0,1,1,-6,0A6,6,0,1,1,6,0"></path><path id="kity_path_73" fill="none" stroke="gray"></path></g><path id="node_outline3" fill="rgb(246, 238, 242)" stroke="rgb(96, 57, 74)" d="M-42,-16h89a3,3,0,0,1,3,3v26a3,3,0,0,1,-3,3h-89a3,3,0,0,1,-3,-3v-26a3,3,0,0,1,3,-3z" stroke-width="3"></path><g id="node_text3" transform="translate( 0 0 )" fill="black"><text id="kity_text_39" text-rendering="inherit" dominant-baseline="text-before-edge" font-size="14" dy="0" y="-7">copy</text></g><g id="node_priority2" transform="translate( -25 -10 )"><path id="kity_path_51" fill="#01467F" stroke="none" d="M0,13c0,3.866,3.134,7,7,7h6c3.866,0,7-3.134,7-7V7H0V13z" transform="translate( 0.5 0.5 )"></path><path id="kity_path_52" fill="#0074FF" stroke="none" d="M20,10c0,3.866-3.134,7-7,7H7c-3.866,0-7-3.134-7-7V7c0-3.866,3.134-7,7-7h6c3.866,0,7,3.134,7,7V10z" opacity="0.8" transform="translate( 0.5 0.5 )"></path><text id="kity_text_53" text-rendering="geometricPrecision" x="9.5" y="10" text-anchor="middle" font-style="italic" font-size="12" fill="white" dy="4">2</text></g></g><g id="minder_node4" transform="matrix( 1 0 0 1 -150 -65 )"><path id="kity_path_82" fill="rgba(0, 0, 0, .25)" stroke="none" d="M-31,-11h94a10,10,0,0,1,10,10v12a10,10,0,0,1,-10,10h-94a10,10,0,0,1,-10,-10v-12a10,10,0,0,1,10,-10z" display="none"></path><g id="node_expander3" transform="translate( 70 0 )" style="cursor: pointer;" display="none"><path id="kity_path_75" fill="white" stroke="gray" d="M6,0A6,6,0,1,1,-6,0A6,6,0,1,1,6,0"></path><path id="kity_path_76" fill="none" stroke="gray"></path></g><path id="node_outline4" fill="rgb(246, 238, 242)" stroke="rgb(96, 57, 74)" d="M-42,-16h102a3,3,0,0,1,3,3v26a3,3,0,0,1,-3,3h-102a3,3,0,0,1,-3,-3v-26a3,3,0,0,1,3,-3z" stroke-width="3"></path><g id="node_text4" transform="translate( 0 0 )" fill="black"><text id="kity_text_41" text-rendering="inherit" dominant-baseline="text-before-edge" font-size="14" dy="0" y="-7">unmap</text></g><g id="node_priority3" transform="translate( -25 -10 )"><path id="kity_path_56" fill="#B25000" stroke="none" d="M0,13c0,3.866,3.134,7,7,7h6c3.866,0,7-3.134,7-7V7H0V13z" transform="translate( 0.5 0.5 )"></path><path id="kity_path_57" fill="#FF962E" stroke="none" d="M20,10c0,3.866-3.134,7-7,7H7c-3.866,0-7-3.134-7-7V7c0-3.866,3.134-7,7-7h6c3.866,0,7,3.134,7,7V10z" opacity="0.8" transform="translate( 0.5 0.5 )"></path><text id="kity_text_58" text-rendering="geometricPrecision" x="9.5" y="10" text-anchor="middle" font-style="italic" font-size="12" fill="white" dy="4">4</text></g></g><g id="minder_node5" transform="matrix( 1 0 0 1 -160 76 )"><path id="kity_path_83" fill="rgba(0, 0, 0, .25)" stroke="none" d="M-31,-11h76a10,10,0,0,1,10,10v12a10,10,0,0,1,-10,10h-76a10,10,0,0,1,-10,-10v-12a10,10,0,0,1,10,-10z" display="none"></path><g id="node_expander4" transform="translate( 54 0 )" style="cursor: pointer;" display="none"><path id="kity_path_78" fill="white" stroke="gray" d="M6,0A6,6,0,1,1,-6,0A6,6,0,1,1,6,0"></path><path id="kity_path_79" fill="none" stroke="gray"></path></g><path id="node_outline5" fill="rgb(246, 238, 242)" stroke="rgb(96, 57, 74)" d="M-42,-16h86a3,3,0,0,1,3,3v26a3,3,0,0,1,-3,3h-86a3,3,0,0,1,-3,-3v-26a3,3,0,0,1,3,-3z" stroke-width="3"></path><g id="node_text5" transform="translate( 0 0 )" fill="black"><text id="kity_text_43" text-rendering="inherit" dominant-baseline="text-before-edge" font-size="14" dy="0" y="-7">map</text></g><g id="node_priority4" transform="translate( -25 -10 )"><path id="kity_path_61" fill="#006300" stroke="none" d="M0,13c0,3.866,3.134,7,7,7h6c3.866,0,7-3.134,7-7V7H0V13z" transform="translate( 0.5 0.5 )"></path><path id="kity_path_62" fill="#00AF00" stroke="none" d="M20,10c0,3.866-3.134,7-7,7H7c-3.866,0-7-3.134-7-7V7c0-3.866,3.134-7,7-7h6c3.866,0,7,3.134,7,7V10z" opacity="0.8" transform="translate( 0.5 0.5 )"></path><text id="kity_text_63" text-rendering="geometricPrecision" x="9.5" y="10" text-anchor="middle" font-style="italic" font-size="12" fill="white" dy="4">3</text></g></g></g></g></svg>